PathFileType	4	(X/Y/Z)	Run_400 05
DataRate	CameraRate	NumFrames	NumMarkers	Units	OrigDataRate	OrigDataStartFrame	OrigNumFrames
120	120	8	42	mm	120	357	128
Frame#	Time	LASI			RASI			LPSI			RPSI			RTH1			RTH2			RTH3			LTH1			LTH2			LTH3			RTB1			RTB2			RTB3			LTB1			LTB2			LTB3			RCAL			RTOE			RMT5			LCAL			LTOE			LMT5			LACR			RACR			CLAV			C7			RUA1			RUA2			RUA3			RLEL			RMEL			LUA1			LUA2			LUA3			LLEL			LMEL			RFAsuperior			RFAradius			RFAulna			LFAsuperior			LFAradius			LFAulna		
		X1	Y1	Z1	X2	Y2	Z2	X3	Y3	Z3	X4	Y4	Z4	X5	Y5	Z5	X6	Y6	Z6	X7	Y7	Z7	X8	Y8	Z8	X9	Y9	Z9	X10	Y10	Z10	X11	Y11	Z11	X12	Y12	Z12	X13	Y13	Z13	X14	Y14	Z14	X15	Y15	Z15	X16	Y16	Z16	X17	Y17	Z17	X18	Y18	Z18	X19	Y19	Z19	X20	Y20	Z20	X21	Y21	Z21	X22	Y22	Z22	X23	Y23	Z23	X24	Y24	Z24	X25	Y25	Z25	X26	Y26	Z26	X27	Y27	Z27	X28	Y28	Z28	X29	Y29	Z29	X30	Y30	Z30	X31	Y31	Z31	X32	Y32	Z32	X33	Y33	Z33	X34	Y34	Z34	X35	Y35	Z35	X36	Y36	Z36	X37	Y37	Z37	X38	Y38	Z38	X39	Y39	Z39	X40	Y40	Z40	X41	Y41	Z41	X42	Y42	Z42	

357	  2.975000	1042.760972	1071.172712	-443.035966	1020.094622	1078.977767	-189.460956	859.890757	1114.845046	-367.030240	848.973385	1107.129153	-282.550496	992.925297	903.629938	-134.402615	1090.903987	822.341097	-143.763802	1070.936922	695.311751	-186.638987	923.124922	860.161085	-489.620904	926.992779	725.685707	-467.410787	823.123207	645.533649	-448.455900	1232.253593	436.960863	-269.127927	1223.738519	367.669543	-202.081248	1254.984363	272.950193	-273.998516	691.929738	464.643201	-378.166679	596.478048	475.808253	-423.473424	491.446649	431.853872	-354.887765	1182.382603	 93.692707	-294.088917	1412.718928	139.483428	-300.269124	1353.327179	 82.988108	-218.447751	354.296501	513.085675	-332.995140	342.392527	280.202440	-318.750785	304.830027	348.985397	-402.433331	1061.544739	1555.931083	-449.790560	972.666844	1547.685759	-124.019666	1049.595112	1498.248416	-243.498843	937.206001	1577.472421	-307.629461	899.428337	1482.132860	-54.214879	861.345728	1397.962300	-57.417432	788.460893	1431.557200	-61.530239	693.221656	1328.315905	-24.359659	694.173709	1316.073840	-105.564804	1062.179494	1468.850191	-528.637323	1066.264419	1396.967710	-521.619995	972.788505	1388.468127	-553.130890	979.300519	1223.467800	-604.576943	909.547178	1217.522530	-546.944363	772.360134	1262.099078	  4.088593	916.654983	1153.875326	-40.145006	874.433752	1125.177379	 11.678060	1059.661972	1235.371547	-546.131693	1141.016969	1286.483427	-393.025620	1163.239109	1216.859465	-405.974103	
358	  2.983333	1041.989015	1065.344948	-442.638259	1017.628916	1074.547320	-188.342613	858.065459	1106.211780	-367.679124	846.885562	1100.248611	-283.254226	991.599220	900.380282	-135.438817	1089.843243	820.437946	-148.488238	1067.358919	690.528412	-185.535747	928.698074	851.009701	-488.637942	937.256308	717.007635	-466.829952	836.205817	633.921356	-449.494326	1222.778689	428.254954	-269.028514	1211.900983	358.837587	-202.895038	1239.235360	263.095915	-274.607753	705.269848	459.939366	-377.363986	610.483449	476.054306	-422.798991	502.832547	439.895758	-354.704465	1158.770988	 93.369092	-294.681520	1390.899169	121.146154	-304.046409	1328.992670	 69.230108	-220.850876	372.091117	530.237930	-332.823434	343.647515	298.854721	-318.092817	311.462134	369.673350	-401.748063	1060.730268	1549.224558	-449.464083	975.098595	1540.092756	-122.790629	1049.726927	1490.935687	-243.493598	936.924450	1571.326849	-306.180905	904.255197	1472.368481	-51.245749	868.009976	1387.372843	-53.096833	794.339396	1418.815320	-53.904614	702.748666	1313.738338	-14.497235	701.443665	1301.363041	-95.774618	1059.136026	1463.051714	-529.406958	1062.426220	1391.035839	-523.101799	968.386856	1383.883746	-553.004086	972.405171	1219.262672	-606.003061	903.155140	1213.944792	-547.941853	783.924823	1249.108501	 11.976680	929.206854	1144.136278	-35.751570	888.911774	1114.515657	 17.012431	1053.483537	1227.955607	-548.498424	1137.916430	1273.709757	-394.777040	1157.962895	1203.754004	-409.497981	
359	  2.991667	1040.981155	1058.447316	-442.336777	1014.768508	1069.380032	-186.750987	855.840741	1096.780331	-368.349026	844.229426	1092.637989	-284.038756	990.002999	896.288143	-135.843900	1087.551976	817.121886	-151.778321	1063.442814	685.522268	-184.467182	933.751294	841.166072	-487.478634	947.523800	708.005312	-466.581781	849.536731	622.214733	-450.294433	1213.634578	420.631012	-269.626671	1199.612993	350.776515	-204.629306	1222.384007	254.193325	-276.220252	719.986596	454.875671	-376.397082	625.935444	475.618232	-422.567963	516.302686	446.754226	-354.828245	1132.782928	 94.770305	-296.258687	1366.123521	103.247484	-308.342943	1301.387069	 58.488618	-222.641783	391.841273	545.153475	-332.067142	349.008929	315.847483	-319.003906	321.222779	388.826675	-401.574072	1059.877527	1541.755419	-449.359271	977.671900	1531.731106	-121.640746	1050.042904	1482.760355	-243.514840	936.408928	1564.484527	-304.743375	909.329476	1462.007834	-48.403808	875.166246	1376.125194	-48.635285	800.912005	1405.369318	-46.443073	713.163813	1298.331025	 -4.353139	709.358681	1285.867775	-85.610956	1056.014005	1456.392606	-530.306305	1058.490517	1384.267177	-524.516539	963.955528	1378.498891	-552.919241	965.366864	1214.358026	-607.458044	896.361221	1209.693365	-548.883874	796.409025	1235.446575	 19.854505	942.502313	1133.841363	-31.665309	904.289078	1103.274013	 22.019346	1047.066833	1219.702946	-551.058608	1134.595293	1259.700208	-396.927746	1152.379490	1189.647184	-413.647281	
360	  3.000000	1039.547809	1050.582244	-441.941194	1011.069753	1063.665143	-184.968858	853.010226	1086.986209	-368.943062	840.575154	1084.555310	-284.909322	987.534250	891.839196	-135.103840	1083.826820	812.893558	-152.016717	1059.505891	681.098337	-183.626786	938.465735	830.834084	-486.076557	957.503840	698.830012	-466.645198	862.956451	610.553574	-450.443443	1204.911385	415.289657	-271.179896	1187.793900	345.029085	-207.214167	1204.580674	247.862112	-278.895784	735.971321	449.702959	-375.343492	642.768364	474.655443	-422.548471	531.754619	452.485527	-355.008405	1104.408428	 96.941213	-298.529880	1338.559952	 88.918859	-312.576534	1271.280898	 52.573050	-223.887823	412.860017	557.854944	-330.811856	358.663209	330.763657	-321.359190	334.411015	406.129557	-402.225346	1058.987461	1533.686753	-449.598063	980.222364	1522.731945	-120.517349	1050.740166	1473.961612	-243.502824	935.658631	1557.203017	-303.238278	914.508873	1451.028259	-45.600195	882.717605	1364.188842	-44.226475	808.019858	1391.267549	-39.174276	724.471612	1282.167702	  5.968403	717.963850	1269.632738	-75.141455	1052.873662	1448.869806	-531.294112	1054.457068	1376.674318	-525.850648	959.515018	1372.339114	-552.953112	958.233859	1208.818265	-608.957650	889.452814	1204.774112	-549.767224	809.806626	1221.180081	 27.663301	956.486837	1123.092602	-27.947055	920.518871	1091.534156	 26.595711	1040.491416	1210.701253	-553.741990	1131.174303	1244.466800	-399.621322	1146.405759	1174.445278	-418.118361	
361	  3.008333	1037.421673	1042.029863	-441.302824	1006.313918	1057.603506	-183.344577	849.417509	1077.343773	-369.464618	835.766809	1076.252036	-285.970571	983.749033	887.715652	-133.399821	1078.887255	808.528369	-149.149613	1055.618135	677.634038	-182.984102	942.995751	820.526081	-484.483837	967.018715	689.889878	-466.873394	876.484285	599.114922	-449.617782	1195.977752	412.501835	-273.500734	1176.557596	342.302242	-210.012012	1185.797459	244.856184	-281.996276	753.187057	444.641393	-374.459162	661.044390	473.292131	-422.409954	549.197150	457.145138	-355.058500	1073.967077	 99.036600	-300.810336	1308.594016	 79.947345	-316.186771	1239.572962	 51.158241	-224.833753	434.859465	568.420280	-329.327351	372.393731	343.333676	-324.796096	351.177725	421.227504	-403.864234	1057.946408	1525.283850	-450.275882	982.492500	1513.416378	-119.310823	1051.911286	1464.992120	-243.405872	934.793328	1549.861636	-301.541745	919.753615	1439.340720	-42.641823	890.497326	1351.563355	-40.093424	815.474963	1376.485300	-32.007310	736.678315	1265.306710	 16.300098	727.408799	1252.654325	-64.490968	1049.765550	1440.522665	-532.367472	1050.287684	1368.270393	-527.103429	955.091267	1365.455720	-553.235280	950.999359	1202.747260	-610.507021	882.711788	1199.263499	-550.635223	824.054674	1206.350858	 35.351882	971.111079	1111.871026	-24.650079	937.529560	1079.334972	 30.677849	1033.842139	1200.992657	-556.534341	1127.661495	1228.034526	-402.858297	1139.981172	1158.099677	-422.661744	
362	  3.016667	1034.364818	1033.288984	-440.462208	1000.752118	1051.558300	-182.152281	845.077336	1068.397686	-370.071370	830.112976	1068.048917	-287.422613	978.521047	884.185293	-131.450750	1073.000757	804.437082	-144.705858	1051.367931	674.739232	-182.487490	947.337570	811.008307	-482.866275	976.133830	681.818037	-466.997650	890.326188	588.214110	-447.766247	1185.859792	411.264741	-275.918199	1164.921979	341.776911	-212.165867	1165.894960	244.346484	-284.577713	771.720736	439.801540	-373.930718	680.901880	471.576933	-421.953530	568.638535	460.777988	-354.886188	1042.222857	100.640291	-302.487332	1277.021139	 75.694991	-318.726378	1207.089915	 52.129111	-225.557672	457.769481	576.872262	-327.977071	389.642021	353.397882	-328.779803	371.338115	433.654624	-406.369508	1056.528826	1516.896174	-451.425505	984.177194	1504.246541	-117.943009	1053.432016	1456.412222	-243.233072	934.079718	1542.899648	-299.583661	925.172423	1426.874868	-39.340981	898.355702	1338.354310	-36.376364	823.196637	1360.983730	-24.749193	749.829098	1247.797480	 26.413484	737.791763	1234.902184	-53.816841	1046.709353	1431.490487	-533.521075	1045.930244	1359.174774	-528.241170	950.706778	1358.000939	-553.884125	943.613490	1196.314652	-612.067983	876.201939	1193.367898	-551.504405	839.057915	1190.958684	 42.823135	986.359137	1100.038820	-21.874426	955.260624	1066.707481	 34.253688	1027.117018	1190.572481	-559.483407	1123.953181	1210.510687	-406.505984	1133.107119	1140.715681	-427.246674	
363	  3.025000	1030.319911	1024.980990	-439.697061	994.999538	1046.147726	-181.422216	840.209085	1060.633730	-370.958642	824.258985	1060.421456	-289.395665	972.066447	880.906094	-129.999042	1066.162595	800.371785	-140.677220	1045.952970	671.566311	-182.281931	951.403240	802.958268	-481.414578	985.222980	675.218819	-466.741050	904.825158	578.325575	-445.197930	1173.798716	409.739461	-277.564430	1151.323005	341.405533	-213.145737	1144.634615	244.262276	-286.025740	791.754030	435.251593	-373.660119	702.431149	469.536099	-421.218625	589.989858	463.421354	-354.492264	1010.011410	101.707850	-303.394126	1244.774289	 73.904764	-320.056300	1174.398113	 53.175565	-225.962418	481.457444	583.175367	-327.102125	409.738329	360.847357	-332.728156	394.366622	442.913000	-409.404247	1054.523046	1508.882176	-452.965819	985.059130	1495.676843	-116.447923	1054.985389	1448.655197	-243.084018	933.826329	1536.696303	-297.475751	930.916439	1413.802319	-35.721333	906.282816	1324.868475	-33.075076	831.324852	1344.880646	-17.233097	764.059567	1229.747912	 36.053832	749.101487	1216.412993	-43.291811	1043.648387	1422.107533	-534.690704	1041.361276	1349.733002	-529.184072	946.361554	1350.323392	-554.920746	936.040097	1189.780126	-613.547626	869.767061	1187.407156	-552.305035	854.821537	1175.021770	 49.875547	1002.266608	1087.503206	-19.784992	973.714191	1053.764602	 37.341058	1020.164193	1179.497250	-562.621410	1119.911505	1192.142497	-410.417867	1125.828713	1122.578814	-432.040176	
364	  3.033333	1025.500677	1017.656444	-439.375346	989.650565	1042.071006	-180.879844	835.147282	1054.359303	-372.149131	818.829436	1053.943523	-291.735416	964.793007	877.349591	-129.353690	1058.179194	795.747028	-138.192966	1038.619392	667.525273	-182.593936	955.205031	796.594085	-480.227966	994.885382	670.379328	-465.961495	920.375005	569.963165	-442.476627	1159.510620	406.254510	-277.871909	1134.556624	339.138172	-213.041136	1121.742309	242.615159	-286.385654	813.426925	431.131999	-373.305005	725.563490	467.254243	-420.402544	613.030205	465.076104	-353.966391	977.796189	102.363069	-303.803599	1212.445531	 72.497821	-320.454910	1141.715594	 53.177493	-226.011920	505.577161	587.316866	-326.939786	432.143960	365.589807	-336.164410	419.540667	448.647588	-412.590971	1051.894802	1501.514788	-454.686528	985.179278	1487.991912	-114.979692	1056.216230	1441.851395	-243.122019	934.157613	1531.439930	-295.524985	936.938144	1400.764058	-32.162167	914.456564	1311.651376	-30.137872	840.182136	1328.629023	 -9.540176	779.604183	1211.452902	 44.983168	761.376579	1197.437825	-33.142234	1040.416079	1412.948285	-535.756619	1036.616156	1340.533230	-529.852300	942.017834	1342.981284	-556.208750	928.323748	1183.491030	-614.811935	863.215889	1181.730707	-552.892767	871.610929	1158.756470	 56.187166	1018.924802	1074.495482	-18.548184	992.984098	1040.818106	 39.922139	1012.762838	1168.081375	-565.815646	1115.447266	1173.336889	-414.548835	1118.172919	1104.128425	-437.255998	
